#!OML:ASF H:\Terrain\Patient Classification 1\Terrain2\Thursday\justin.ASF
:FULLY-SPECIFIED
:DEGREES
2603
root 10.7517 17.9152 21.5978 833.293 -81.1409 237.551
lowerback 5.12065 1.16405 4.1555
upperback 2.66615 1.60391 4.69055
thorax -0.138508 0.742457 2.4193
lowerneck -11.1004 -2.2771 -10.2635
upperneck 40.4289 -5.39761 6.16525
head 17.0278 -3.72984 3.48847
rclavicle 9.13167e-015 2.98177e-014
rhumerus -39.6739 -10.3903 -73.4832
rradius 35.8882
rwrist -17.6711
rhand -22.4611 10.1464
rfingers 7.12502
rthumb 3.96351 -19.7965
lclavicle 9.13167e-015 2.98177e-014
lhumerus -43.7561 12.184 78.5433
lradius 26.5443
lwrist 1.84642
lhand -22.8441 18.5096
lfingers 7.12502
lthumb 3.59363 48.4591
rfemur -2.59224 -11.2851 10.3789
rtibia 108.122
rfoot -15.9617 18.0569
rtoes -18.6613
lfemur -1.01679 4.99798 -11.4262
ltibia 29.0939
lfoot -6.28548 -12.9022
ltoes 15.6025
2604
root 10.6837 17.7994 21.6807 848.105 -85.6519 223.974
lowerback 4.35579 0.956545 0.0565624
upperback 2.10043 1.23169 3.19456
thorax -0.353019 0.574182 3.19608
lowerneck -11.1269 -2.30408 -10.28
upperneck 40.3576 -5.4571 6.27122
head 17.0073 -3.73842 3.52803
rclavicle 3.72721e-016 2.0276e-014
rhumerus -39.347 -11.3789 -73.2167
rradius 34.9611
rwrist -16.922
rhand -22.509 10.0267
rfingers 7.12502
rthumb 3.91722 -19.9171
lclavicle 3.72721e-016 2.0276e-014
lhumerus -43.4582 12.4417 78.162
lradius 25.7136
lwrist 1.79995
lhand -23.3735 19.0687
lfingers 7.12502
lthumb 3.08245 49.0262
rfemur -4.30245 -13.2048 2.45753
rtibia 110.547
rfoot -14.7059 20.5327
rtoes -17.514
lfemur -2.78846 4.71899 -17.2511
ltibia 30.0964
lfoot -8.18107 -12.3479
ltoes 14.8329
2605
root 10.5688 17.7052 21.65 832.849 -85.2107 239.181
lowerback 4.43447 0.724579 0.468809
upperback 2.05093 0.935259 3.47942
thorax -0.429065 0.424103 3.27143
lowerneck -11.0239 -2.28576 -10.0013
upperneck 40.2379 -5.46625 6.18814
head 16.899 -3.70632 3.43509
rclavicle -1.24862e-014 -1.03368e-014
rhumerus -38.9252 -12.6417 -72.943
rradius 33.7801
rwrist -15.8521
rhand -22.7415 9.94974
rfingers 7.12502
rthumb 3.69278 -19.998
lclavicle -1.24862e-014 -1.03368e-014
lhumerus -43.0846 13.2443 77.3423
lradius 24.7257
lwrist 1.02977
lhand -23.6126 20.099
lfingers 7.12502
lthumb 2.85152 50.0597
rfemur -3.54821 -13.7337 3.0307
rtibia 111.788
rfoot -11.1298 21.6046
rtoes -4.54381
lfemur -2.92455 4.63899 -15.9917
ltibia 31.1321
lfoot -9.60293 -13.0929
ltoes 16.6396
2606
root 10.4707 17.6258 21.6547 821.861 -84.8939 250.242
lowerback 4.4161 0.475027 0.903692
upperback 2.06075 0.612873 3.63296
thorax -0.388091 0.261194 3.20089
lowerneck -11.1812 -2.28369 -9.99724
upperneck 40.273 -5.45626 6.22718
head 16.959 -3.69223 3.45457
rclavicle -3.34207e-015 -3.45885e-014
rhumerus -38.3683 -13.914 -72.5431
rradius 32.5672
rwrist -14.7465
rhand -22.4855 10.2781
rfingers 7.12502
rthumb 3.93995 -19.6652
lclavicle -3.34207e-015 -3.45885e-014
lhumerus -42.5854 15.5229 75.8907
lradius 23.454
lwrist -1.17096
lhand -23.344 20.6477
lfingers 7.12502
lthumb 3.11094 50.6048
rfemur -3.72004 -15.4 2.60629
rtibia 113.516
rfoot -10.9964 20.7722
rtoes -6.46816
lfemur -3.30729 4.07898 -15.3604
ltibia 32.2869
lfoot -10.1893 -13.7629
ltoes 23.8641
2607
root 10.387 17.5586 21.6771 813.48 -84.5836 258.698
lowerback 4.52426 0.322642 1.4154
upperback 2.07264 0.427855 3.71703
thorax -0.423516 0.168471 3.00803
lowerneck -11.4389 -2.40396 -10.1975
upperneck 40.3598 -5.58847 6.31507
head 17.1055 -3.75988 3.50972
rclavicle -5.34234e-016 -1.35174e-014
rhumerus -38 -15.283 -72.0389
rradius 31.6436
rwrist -13.7276
rhand -22.0336 10.2595
rfingers 7.12502
rthumb 4.37631 -19.6753
lclavicle -5.34234e-016 -1.35174e-014
lhumerus -42.0618 18.101 74.362
lradius 22.1273
lwrist -3.89155
lhand -23.3598 21.0833
lfingers 7.12502
lthumb 3.09563 51.0406
rfemur -3.989 -17.0023 1.73754
rtibia 115.281
rfoot -10.3949 20.1612
rtoes -8.96687
lfemur -3.89561 3.47431 -15.0279
ltibia 33.765
lfoot -10.7912 -14.2772
ltoes 28.2349
2608
root 10.3139 17.5035 21.6985 805.782 -84.5512 266.346
lowerback 4.92591 0.18275 1.55901
upperback 2.04251 0.263528 3.64051
thorax -0.670623 0.0876409 2.85589
lowerneck -11.5838 -2.51401 -10.232
upperneck 40.3817 -5.752 6.37976
head 17.1828 -3.81847 3.51702
rclavicle -1.46604e-015 -1.15295e-014
rhumerus -37.9261 -16.4688 -71.6838
rradius 31.0302
rwrist -13.0935
rhand -21.6825 10.1165
rfingers 7.12502
rthumb 4.71532 -19.811
lclavicle -1.46604e-015 -1.15295e-014
lhumerus -41.7543 20.3446 72.8227
lradius 21.0963
lwrist -5.96273
lhand -23.2922 21.2527
lfingers 7.12502
lthumb 3.16088 51.209
rfemur -4.16382 -18.6928 0.289442
rtibia 117.156
rfoot -10.5255 19.1242
rtoes -9.9606
lfemur -4.32718 2.9813 -15.0962
ltibia 34.9791
lfoot -11.6895 -14.4626
ltoes 26.0146
2609
root 10.251 17.4662 21.7247 797.063 -85.2785 275.216
lowerback 5.18266 -0.0293832 0.740574
upperback 1.9595 -0.0384092 3.44577
thorax -0.887868 -0.0605252 3.13346
lowerneck -11.648 -2.49354 -10.3007
upperneck 40.3207 -5.6512 6.33281
head 17.1529 -3.78597 3.52441
rclavicle -3.59055e-015 -1.03368e-014
rhumerus -37.8258 -17.1708 -71.3316
rradius 30.5816
rwrist -12.8446
rhand -21.6942 10.2463
rfingers 7.12502
rthumb 4.70405 -19.6814
lclavicle -3.59055e-015 -1.03368e-014
lhumerus -41.7591 22.6013 71.5387
lradius 20.5951
lwrist -7.07126
lhand -22.895 21.5335
lfingers 7.12502
lthumb 3.54452 51.4837
rfemur -4.29875 -20.4074 -2.35753
rtibia 118.966
rfoot -11.3621 18.6716
rtoes -8.29231
lfemur -4.87282 2.52017 -16.1442
ltibia 35.9307
lfoot -12.8077 -14.3946
ltoes 20.9344
2610
root 10.1785 17.4412 21.7543 787.587 -86.0682 284.922
lowerback 5.15292 -0.13664 -0.176624
upperback 1.92374 -0.218292 3.25628
thorax -0.896758 -0.14804 3.46559
lowerneck -11.6541 -2.51029 -10.5341
upperneck 40.2362 -5.57761 6.32086
head 17.1082 -3.78481 3.57295
rclavicle -2.49723e-015 4.77083e-015
rhumerus -37.8313 -17.7358 -70.9591
rradius 30.3588
rwrist -12.6305
rhand -22.2873 10.0856
rfingers 7.12502
rthumb 4.13136 -19.854
lclavicle -2.49723e-015 4.77083e-015
lhumerus -41.7427 24.5687 70.6479
lradius 20.3506
lwrist -7.58206
lhand -22.5151 21.8032
lfingers 7.12502
lthumb 3.91137 51.7471
rfemur -4.51282 -21.6816 -4.95747
rtibia 120.599
rfoot -12.2843 19.2873
rtoes -6.46303
lfemur -5.18828 2.03165 -17.3888
ltibia 36.5309
lfoot -13.5409 -14.3676
ltoes 18.7788
2611
root 10.0991 17.4221 21.7681 787.125 -85.8825 285.333
lowerback 5.22141 -0.0109442 0.0848041
upperback 2.04632 -0.0432877 3.22109
thorax -0.819974 -0.0623107 3.27104
lowerneck -11.6693 -2.65439 -10.687
upperneck 40.1171 -5.83882 6.59329
head 17.1006 -3.86985 3.67797
rclavicle -2.13694e-015 7.95139e-015
rhumerus -38.044 -18.1887 -71.0049
rradius 30.4072
rwrist -12.927
rhand -22.9313 9.86356
rfingers 7.12502
rthumb 3.50941 -20.0873
lclavicle -2.13694e-015 7.95139e-015
lhumerus -41.3187 25.4053 70.3481
lradius 20.3035
lwrist -7.63837
lhand -22.566 22.278
lfingers 7.12502
lthumb 3.86221 52.2228
rfemur -5.0686 -22.6256 -5.45514
rtibia 122.016
rfoot -13.0868 19.5516
rtoes -6.49386
lfemur -4.92919 1.77279 -17.283
ltibia 36.7357
lfoot -13.8172 -14.4584
ltoes 19.046
2612
root 10.0235 17.4151 21.7789 789.996 -85.6465 282.207
lowerback 5.4294 0.135107 0.432289
upperback 2.31489 0.156546 3.22995
thorax -0.669929 0.032675 3.07245
lowerneck -11.7547 -2.75616 -10.6823
upperneck 39.9142 -5.98801 6.71561
head 17.0356 -3.89566 3.70206
rclavicle 4.91371e-015 4.13472e-014
rhumerus -38.0122 -18.1499 -71.3233
rradius 30.4524
rwrist -13.5003
rhand -22.667 9.80377
rfingers 7.12502
rthumb 3.76466 -20.1427
lclavicle 4.91371e-015 4.13472e-014
lhumerus -40.6244 25.4076 70.9072
lradius 20.5417
lwrist -7.4038
lhand -23.6352 23.9047
lfingers 7.12502
lthumb 2.82962 53.8657
rfemur -5.59464 -23.4197 -5.63485
rtibia 123.217
rfoot -13.5631 19.312
rtoes -7.48322
lfemur -4.25757 1.84235 -16.9908
ltibia 36.5866
lfoot -14.195 -14.3043
ltoes 18.2953
2613
root 9.94996 17.4183 21.7986 790.202 -86.0172 281.78
lowerback 5.53946 0.221156 0.123544
upperback 2.64182 0.24289 3.11455
thorax -0.400111 0.0685748 3.12225
lowerneck -11.8504 -2.77553 -10.5824
upperneck 39.6474 -5.91435 6.58367
head 16.8918 -3.84268 3.62972
rclavicle 7.68738e-016 7.95139e-015
rhumerus -37.6221 -17.8 -71.6759
rradius 30.3187
rwrist -13.8084
rhand -22.0605 9.62736
rfingers 7.12502
rthumb 4.35033 -20.308
lclavicle 7.68738e-016 7.95139e-015
lhumerus -39.8522 25.3604 71.6796
lradius 20.8554
lwrist -6.71469
lhand -24.5079 25.11
lfingers 7.12502
lthumb 1.9868 55.0805
rfemur -6.17607 -24.0622 -6.56947
rtibia 124.376
rfoot -13.9814 18.8435
rtoes -8.17141
lfemur -3.44688 1.93624 -17.4773
ltibia 36.1063
lfoot -14.5895 -13.9034
ltoes 16.8507
2614
root 9.88026 17.4301 21.8197 794.703 -86.2578 277.199
lowerback 5.58494 0.403446 0.0873194
upperback 2.89082 0.473116 2.99885
thorax -0.180995 0.179279 3.00999
lowerneck -11.856 -2.83273 -10.4254
upperneck 39.3852 -5.95265 6.48884
head 16.7434 -3.8273 3.54511
rclavicle -1.22718e-014 -4.33351e-014
rhumerus -37.2242 -17.3062 -72.1871
rradius 30.1045
rwrist -14.1024
rhand -22.2352 9.72107
rfingers 7.12502
rthumb 4.18169 -20.2176
lclavicle -1.22718e-014 -4.33351e-014
lhumerus -39.0019 24.354 72.7763
lradius 21.4557
lwrist -4.89477
lhand -24.4139 25.7556
lfingers 7.12502
lthumb 2.07767 55.7252
rfemur -7.35152 -24.4465 -6.55283
rtibia 125.411
rfoot -14.1159 18.1233
rtoes -6.55589
lfemur -2.60006 1.99896 -17.7717
ltibia 35.2796
lfoot -14.6634 -13.5199
ltoes 16.7943
2615
root 9.8102 17.4546 21.8373 801.671 -86.688 270.185
lowerback 5.69353 0.650478 -0.191568
upperback 3.05734 0.78418 2.87587
thorax -0.0882364 0.330565 3.02235
lowerneck -11.8779 -2.92837 -10.4988
upperneck 39.2821 -6.09354 6.58453
head 16.72 -3.87529 3.57473
rclavicle 5.77407e-015 1.11319e-014
rhumerus -36.9752 -16.6286 -72.7033
rradius 30.0714
rwrist -14.2623
rhand -22.7306 10.1114
rfingers 7.12502
rthumb 3.70327 -19.8361
lclavicle 5.77407e-015 1.11319e-014
lhumerus -38.3382 22.7776 74.1849
lradius 22.3653
lwrist -2.71009
lhand -24.1024 26.1391
lfingers 7.12502
lthumb 2.37844 56.1056
rfemur -8.4524 -24.9496 -6.90393
rtibia 126.275
rfoot -14.3579 17.2121
rtoes -4.50031
lfemur -1.59869 2.05306 -18.3019
ltibia 34.1142
lfoot -14.4132 -13.1394
ltoes 18.8867
2616
root 9.73808 17.4924 21.8502 808.491 -87.1419 263.238
lowerback 5.91032 0.835959 -0.596927
upperback 3.20709 1.00749 2.78366
thorax -0.0717721 0.436155 3.14151
lowerneck -11.9703 -2.96758 -10.7159
upperneck 39.3587 -6.12733 6.68354
head 16.8057 -3.90863 3.65509
rclavicle -2.59662e-015 -1.19271e-014
rhumerus -36.8411 -16.025 -73.077
rradius 30.1867
rwrist -13.7065
rhand -22.8771 10.5975
rfingers 7.12502
rthumb 3.56181 -19.3525
lclavicle -2.59662e-015 -1.19271e-014
lhumerus -37.8708 21.5498 75.505
lradius 23.2555
lwrist -0.657577
lhand -24.2519 25.8718
lfingers 7.12502
lthumb 2.23411 55.8398
rfemur -9.1538 -25.9533 -7.67554
rtibia 127.027
rfoot -15.1638 15.3885
rtoes -5.27408
lfemur -0.422011 2.03383 -18.8982
ltibia 32.7055
lfoot -13.7383 -12.854
ltoes 23.5801
2617
root 9.67073 17.5318 21.8612 815.983 -87.2782 255.607
lowerback 6.20249 1.01766 -0.656734
upperback 3.32553 1.24207 2.6903
thorax -0.125153 0.551478 3.06132
lowerneck -11.9794 -2.97099 -10.788
upperneck 39.4081 -6.14732 6.76115
head 16.8449 -3.91878 3.70203
rclavicle -5.34855e-015 -3.18055e-015
rhumerus -36.8195 -15.4749 -73.5093
rradius 30.3526
rwrist -12.893
rhand -22.9707 11.1157
rfingers 7.12502
rthumb 3.47135 -18.8357
lclavicle -5.34855e-015 -3.18055e-015
lhumerus -37.4288 19.8522 76.888
lradius 24.2774
lwrist 1.68242
lhand -24.5803 25.636
lfingers 7.12502
lthumb 1.91694 55.6071
rfemur -9.96282 -27.0398 -7.85272
rtibia 127.683
rfoot -15.7268 13.1899
rtoes -4.3526
lfemur 0.812878 2.06693 -19.1546
ltibia 31.1224
lfoot -13.0853 -12.4376
ltoes 26.6224
